<svg width="459" height="234" viewBox="0 0 459 234" fill="none" xmlns="http://www.w3.org/2000/svg">
<line x1="44" y1="209.5" x2="409" y2="209.5" stroke="#C98512"/>
<line x1="374" y1="42.5" x2="409" y2="42.5" stroke="#C98512"/>
<line x1="44" y1="42.5" x2="79" y2="42.5" stroke="#C98512"/>
<path d="M284.141 185V73.2812H294.043L319.941 149.326L318.608 117.017V73.2812H330.225V185H320.576L295.503 108.32L296.265 136.504V185H284.141Z" fill="#001A43"/>
<path d="M53.1406 185V73.2812H66.2803V174.146H86.9102V185H53.1406Z" fill="#001A43"/>
<path d="M376.141 185V73.2812H409.529V84.1992H389.28V122.412H408.45V133.33H389.28V174.082H409.783V185H376.141Z" fill="#001A43"/>
<mask id="path-7-outside-1_146_665" maskUnits="userSpaceOnUse" x="109" y="26" width="230" height="29" fill="black">
<rect fill="white" x="109" y="26" width="230" height="29"/>
<path d="M110.212 30H111.136V50.188H117.632V51H110.212V30ZM133.599 30H141.131V30.812H134.523V42.236H140.039V43.048H134.523V50.188H141.131V51H133.599V30ZM186.4 51.56C184.44 51.56 182.638 51.084 180.996 50.132C179.353 49.1613 178.046 47.836 177.076 46.156C176.124 44.4573 175.648 42.5533 175.648 40.444C175.648 38.4093 176.142 36.552 177.132 34.872C178.14 33.192 179.474 31.8667 181.136 30.896C182.816 29.9253 184.598 29.44 186.484 29.44C187.79 29.44 188.826 29.5613 189.592 29.804C190.357 30.028 191.244 30.4293 192.252 31.008V32.044C191.3 31.3907 190.413 30.9333 189.592 30.672C188.789 30.392 187.781 30.252 186.568 30.252C184.72 30.252 183.03 30.728 181.5 31.68C179.988 32.6133 178.784 33.8733 177.888 35.46C177.01 37.028 176.572 38.7173 176.572 40.528C176.572 42.3573 177.02 44.056 177.916 45.624C178.812 47.192 179.997 48.4427 181.472 49.376C182.965 50.2907 184.57 50.748 186.288 50.748C187.52 50.748 188.593 50.608 189.508 50.328C190.422 50.0293 191.337 49.572 192.252 48.956V49.992C191.356 50.5333 190.432 50.9253 189.48 51.168C188.546 51.4293 187.52 51.56 186.4 51.56ZM209.531 30H210.455V51H209.531V30ZM228.996 32.1V51H228.184V29.692L243.64 48.872V30H244.452V51.308L228.996 32.1ZM283.043 40.416C283.043 42.1707 282.67 43.8133 281.923 45.344C281.176 46.8747 280.15 48.1627 278.843 49.208L280.999 51.336H279.767L278.143 49.712C276.332 50.944 274.326 51.56 272.123 51.56C270.163 51.56 268.343 51.0467 266.663 50.02C264.983 48.9933 263.648 47.6307 262.659 45.932C261.688 44.2147 261.203 42.376 261.203 40.416C261.203 38.4747 261.698 36.664 262.687 34.984C263.676 33.2853 265.011 31.9413 266.691 30.952C268.371 29.944 270.191 29.44 272.151 29.44C274.13 29.44 275.95 29.9347 277.611 30.924C279.272 31.9133 280.588 33.2573 281.559 34.956C282.548 36.636 283.043 38.456 283.043 40.416ZM272.123 50.748C274.064 50.748 275.866 50.1973 277.527 49.096L272.571 44.196H273.775L278.227 48.592C279.422 47.6213 280.364 46.4267 281.055 45.008C281.764 43.5893 282.119 42.0773 282.119 40.472C282.119 38.6427 281.671 36.944 280.775 35.376C279.879 33.808 278.666 32.5667 277.135 31.652C275.604 30.7187 273.943 30.252 272.151 30.252C270.34 30.252 268.67 30.7187 267.139 31.652C265.608 32.5667 264.386 33.808 263.471 35.376C262.575 36.944 262.127 38.6427 262.127 40.472C262.127 42.32 262.575 44.0373 263.471 45.624C264.386 47.192 265.608 48.4427 267.139 49.376C268.67 50.2907 270.331 50.748 272.123 50.748ZM305.976 51.56C304.762 51.56 303.68 51.308 302.728 50.804C301.776 50.2813 301.029 49.544 300.488 48.592C299.946 47.64 299.676 46.5293 299.676 45.26V30H300.6V45.232C300.6 46.352 300.833 47.332 301.3 48.172C301.766 48.9933 302.401 49.628 303.204 50.076C304.025 50.524 304.94 50.748 305.948 50.748C306.956 50.748 307.861 50.5333 308.664 50.104C309.485 49.656 310.12 49.0213 310.568 48.2C311.034 47.36 311.268 46.3707 311.268 45.232V30H312.192V45.204C312.192 46.492 311.93 47.6213 311.408 48.592C310.885 49.544 310.148 50.2813 309.196 50.804C308.262 51.308 307.189 51.56 305.976 51.56ZM329.789 30H337.321V30.812H330.713V42.236H336.229V43.048H330.713V50.188H337.321V51H329.789V30Z"/>
</mask>
<path d="M110.212 30H111.136V50.188H117.632V51H110.212V30ZM133.599 30H141.131V30.812H134.523V42.236H140.039V43.048H134.523V50.188H141.131V51H133.599V30ZM186.4 51.56C184.44 51.56 182.638 51.084 180.996 50.132C179.353 49.1613 178.046 47.836 177.076 46.156C176.124 44.4573 175.648 42.5533 175.648 40.444C175.648 38.4093 176.142 36.552 177.132 34.872C178.14 33.192 179.474 31.8667 181.136 30.896C182.816 29.9253 184.598 29.44 186.484 29.44C187.79 29.44 188.826 29.5613 189.592 29.804C190.357 30.028 191.244 30.4293 192.252 31.008V32.044C191.3 31.3907 190.413 30.9333 189.592 30.672C188.789 30.392 187.781 30.252 186.568 30.252C184.72 30.252 183.03 30.728 181.5 31.68C179.988 32.6133 178.784 33.8733 177.888 35.46C177.01 37.028 176.572 38.7173 176.572 40.528C176.572 42.3573 177.02 44.056 177.916 45.624C178.812 47.192 179.997 48.4427 181.472 49.376C182.965 50.2907 184.57 50.748 186.288 50.748C187.52 50.748 188.593 50.608 189.508 50.328C190.422 50.0293 191.337 49.572 192.252 48.956V49.992C191.356 50.5333 190.432 50.9253 189.48 51.168C188.546 51.4293 187.52 51.56 186.4 51.56ZM209.531 30H210.455V51H209.531V30ZM228.996 32.1V51H228.184V29.692L243.64 48.872V30H244.452V51.308L228.996 32.1ZM283.043 40.416C283.043 42.1707 282.67 43.8133 281.923 45.344C281.176 46.8747 280.15 48.1627 278.843 49.208L280.999 51.336H279.767L278.143 49.712C276.332 50.944 274.326 51.56 272.123 51.56C270.163 51.56 268.343 51.0467 266.663 50.02C264.983 48.9933 263.648 47.6307 262.659 45.932C261.688 44.2147 261.203 42.376 261.203 40.416C261.203 38.4747 261.698 36.664 262.687 34.984C263.676 33.2853 265.011 31.9413 266.691 30.952C268.371 29.944 270.191 29.44 272.151 29.44C274.13 29.44 275.95 29.9347 277.611 30.924C279.272 31.9133 280.588 33.2573 281.559 34.956C282.548 36.636 283.043 38.456 283.043 40.416ZM272.123 50.748C274.064 50.748 275.866 50.1973 277.527 49.096L272.571 44.196H273.775L278.227 48.592C279.422 47.6213 280.364 46.4267 281.055 45.008C281.764 43.5893 282.119 42.0773 282.119 40.472C282.119 38.6427 281.671 36.944 280.775 35.376C279.879 33.808 278.666 32.5667 277.135 31.652C275.604 30.7187 273.943 30.252 272.151 30.252C270.34 30.252 268.67 30.7187 267.139 31.652C265.608 32.5667 264.386 33.808 263.471 35.376C262.575 36.944 262.127 38.6427 262.127 40.472C262.127 42.32 262.575 44.0373 263.471 45.624C264.386 47.192 265.608 48.4427 267.139 49.376C268.67 50.2907 270.331 50.748 272.123 50.748ZM305.976 51.56C304.762 51.56 303.68 51.308 302.728 50.804C301.776 50.2813 301.029 49.544 300.488 48.592C299.946 47.64 299.676 46.5293 299.676 45.26V30H300.6V45.232C300.6 46.352 300.833 47.332 301.3 48.172C301.766 48.9933 302.401 49.628 303.204 50.076C304.025 50.524 304.94 50.748 305.948 50.748C306.956 50.748 307.861 50.5333 308.664 50.104C309.485 49.656 310.12 49.0213 310.568 48.2C311.034 47.36 311.268 46.3707 311.268 45.232V30H312.192V45.204C312.192 46.492 311.93 47.6213 311.408 48.592C310.885 49.544 310.148 50.2813 309.196 50.804C308.262 51.308 307.189 51.56 305.976 51.56ZM329.789 30H337.321V30.812H330.713V42.236H336.229V43.048H330.713V50.188H337.321V51H329.789V30Z" fill="#C98512"/>
<path d="M110.212 30V29H109.212V30H110.212ZM111.136 30H112.136V29H111.136V30ZM111.136 50.188H110.136V51.188H111.136V50.188ZM117.632 50.188H118.632V49.188H117.632V50.188ZM117.632 51V52H118.632V51H117.632ZM110.212 51H109.212V52H110.212V51ZM110.212 30V31H111.136V30V29H110.212V30ZM111.136 30H110.136V50.188H111.136H112.136V30H111.136ZM111.136 50.188V51.188H117.632V50.188V49.188H111.136V50.188ZM117.632 50.188H116.632V51H117.632H118.632V50.188H117.632ZM117.632 51V50H110.212V51V52H117.632V51ZM110.212 51H111.212V30H110.212H109.212V51H110.212ZM133.599 30V29H132.599V30H133.599ZM141.131 30H142.131V29H141.131V30ZM141.131 30.812V31.812H142.131V30.812H141.131ZM134.523 30.812V29.812H133.523V30.812H134.523ZM134.523 42.236H133.523V43.236H134.523V42.236ZM140.039 42.236H141.039V41.236H140.039V42.236ZM140.039 43.048V44.048H141.039V43.048H140.039ZM134.523 43.048V42.048H133.523V43.048H134.523ZM134.523 50.188H133.523V51.188H134.523V50.188ZM141.131 50.188H142.131V49.188H141.131V50.188ZM141.131 51V52H142.131V51H141.131ZM133.599 51H132.599V52H133.599V51ZM133.599 30V31H141.131V30V29H133.599V30ZM141.131 30H140.131V30.812H141.131H142.131V30H141.131ZM141.131 30.812V29.812H134.523V30.812V31.812H141.131V30.812ZM134.523 30.812H133.523V42.236H134.523H135.523V30.812H134.523ZM134.523 42.236V43.236H140.039V42.236V41.236H134.523V42.236ZM140.039 42.236H139.039V43.048H140.039H141.039V42.236H140.039ZM140.039 43.048V42.048H134.523V43.048V44.048H140.039V43.048ZM134.523 43.048H133.523V50.188H134.523H135.523V43.048H134.523ZM134.523 50.188V51.188H141.131V50.188V49.188H134.523V50.188ZM141.131 50.188H140.131V51H141.131H142.131V50.188H141.131ZM141.131 51V50H133.599V51V52H141.131V51ZM133.599 51H134.599V30H133.599H132.599V51H133.599ZM180.996 50.132L180.487 50.993L180.494 50.9972L180.996 50.132ZM177.076 46.156L176.203 46.6449L176.21 46.6563L177.076 46.156ZM177.132 34.872L176.274 34.3575L176.27 34.3646L177.132 34.872ZM181.136 30.896L180.635 30.0301L180.631 30.0326L181.136 30.896ZM189.592 29.804L189.289 30.7572L189.3 30.7606L189.311 30.7637L189.592 29.804ZM192.252 31.008H193.252V30.429L192.749 30.1407L192.252 31.008ZM192.252 32.044L191.686 32.8685L193.252 33.9431V32.044H192.252ZM189.592 30.672L189.262 31.6162L189.275 31.6207L189.288 31.6249L189.592 30.672ZM181.5 31.68L182.025 32.5309L182.028 32.5292L181.5 31.68ZM177.888 35.46L177.017 34.9683L177.015 34.9717L177.888 35.46ZM177.916 45.624L177.047 46.1201V46.1201L177.916 45.624ZM181.472 49.376L180.937 50.221L180.943 50.2249L180.949 50.2288L181.472 49.376ZM189.508 50.328L189.8 51.2842L189.809 51.2815L189.818 51.2786L189.508 50.328ZM192.252 48.956H193.252V47.0769L191.693 48.1266L192.252 48.956ZM192.252 49.992L192.769 50.8479L193.252 50.5562V49.992H192.252ZM189.48 51.168L189.233 50.199L189.221 50.2019L189.21 50.205L189.48 51.168ZM186.4 51.56V50.56C184.61 50.56 182.982 50.1276 181.497 49.2668L180.996 50.132L180.494 50.9972C182.294 52.0404 184.269 52.56 186.4 52.56V51.56ZM180.996 50.132L181.504 49.2711C180.012 48.3894 178.828 47.1894 177.941 45.6557L177.076 46.156L176.21 46.6563C177.265 48.4826 178.693 49.9332 180.487 50.9929L180.996 50.132ZM177.076 46.156L177.948 45.6671C177.086 44.1301 176.648 42.3968 176.648 40.444H175.648H174.648C174.648 42.7099 175.161 44.7846 176.203 46.6449L177.076 46.156ZM175.648 40.444H176.648C176.648 38.5797 177.099 36.8988 177.993 35.3794L177.132 34.872L176.27 34.3646C175.186 36.2052 174.648 38.239 174.648 40.444H175.648ZM177.132 34.872L177.989 35.3865C178.912 33.8479 180.127 32.6437 181.64 31.7594L181.136 30.896L180.631 30.0326C178.822 31.0896 177.367 32.5361 176.274 34.3575L177.132 34.872ZM181.136 30.896L181.636 31.7619C183.168 30.8764 184.779 30.44 186.484 30.44V29.44V28.44C184.417 28.44 182.463 28.9743 180.635 30.0301L181.136 30.896ZM186.484 29.44V30.44C187.743 30.44 188.664 30.5588 189.289 30.7572L189.592 29.804L189.894 28.8508C188.989 28.5638 187.837 28.44 186.484 28.44V29.44ZM189.592 29.804L189.311 30.7637C189.974 30.958 190.786 31.3197 191.754 31.8753L192.252 31.008L192.749 30.1407C191.701 29.539 190.739 29.098 189.872 28.8443L189.592 29.804ZM192.252 31.008H191.252V32.044H192.252H193.252V31.008H192.252ZM192.252 32.044L192.817 31.2195C191.81 30.5283 190.835 30.0182 189.895 29.7191L189.592 30.672L189.288 31.6249C189.991 31.8484 190.789 32.2531 191.686 32.8685L192.252 32.044ZM189.592 30.672L189.921 29.7278C188.978 29.3988 187.849 29.252 186.568 29.252V30.252V31.252C187.713 31.252 188.6 31.3852 189.262 31.6162L189.592 30.672ZM186.568 30.252V29.252C184.538 29.252 182.665 29.7777 180.971 30.8308L181.5 31.68L182.028 32.5292C183.396 31.6783 184.901 31.252 186.568 31.252V30.252ZM181.5 31.68L180.974 30.8291C179.315 31.8534 177.994 33.2385 177.017 34.9683L177.888 35.46L178.758 35.9517C179.574 34.5081 180.66 33.3733 182.025 32.5309L181.5 31.68ZM177.888 35.46L177.015 34.9717C176.053 36.6901 175.572 38.5478 175.572 40.528H176.572H177.572C177.572 38.8869 177.967 37.3659 178.76 35.9483L177.888 35.46ZM176.572 40.528H175.572C175.572 42.529 176.064 44.399 177.047 46.1201L177.916 45.624L178.784 45.1279C177.975 43.713 177.572 42.1857 177.572 40.528H176.572ZM177.916 45.624L177.047 46.1201C178.021 47.8248 179.319 49.1972 180.937 50.221L181.472 49.376L182.006 48.531C180.675 47.6881 179.602 46.5592 178.784 45.1279L177.916 45.624ZM181.472 49.376L180.949 50.2288C182.597 51.2377 184.382 51.748 186.288 51.748V50.748V49.748C184.758 49.748 183.333 49.3436 181.994 48.5232L181.472 49.376ZM186.288 50.748V51.748C187.592 51.748 188.768 51.6002 189.8 51.2842L189.508 50.328L189.215 49.3718C188.418 49.6158 187.447 49.748 186.288 49.748V50.748ZM189.508 50.328L189.818 51.2786C190.832 50.9474 191.83 50.4457 192.81 49.7854L192.252 48.956L191.693 48.1266C190.844 48.6983 190.012 49.1113 189.197 49.3774L189.508 50.328ZM192.252 48.956H191.252V49.992H192.252H193.252V48.956H192.252ZM192.252 49.992L191.734 49.1361C190.917 49.63 190.083 49.9821 189.233 50.199L189.48 51.168L189.727 52.137C190.78 51.8686 191.794 51.4367 192.769 50.8479L192.252 49.992ZM189.48 51.168L189.21 50.205C188.377 50.4383 187.442 50.56 186.4 50.56V51.56V52.56C187.597 52.56 188.716 52.4203 189.749 52.131L189.48 51.168ZM209.531 30V29H208.531V30H209.531ZM210.455 30H211.455V29H210.455V30ZM210.455 51V52H211.455V51H210.455ZM209.531 51H208.531V52H209.531V51ZM209.531 30V31H210.455V30V29H209.531V30ZM210.455 30H209.455V51H210.455H211.455V30H210.455ZM210.455 51V50H209.531V51V52H210.455V51ZM209.531 51H210.531V30H209.531H208.531V51H209.531ZM228.996 32.1L229.775 31.4731L227.996 29.2621V32.1H228.996ZM228.996 51V52H229.996V51H228.996ZM228.184 51H227.184V52H228.184V51ZM228.184 29.692L228.963 29.0645L227.184 26.8573V29.692H228.184ZM243.64 48.872L242.861 49.4995L244.64 51.7067V48.872H243.64ZM243.64 30V29H242.64V30H243.64ZM244.452 30H245.452V29H244.452V30ZM244.452 51.308L243.673 51.9349L245.452 54.1459V51.308H244.452ZM228.996 32.1H227.996V51H228.996H229.996V32.1H228.996ZM228.996 51V50H228.184V51V52H228.996V51ZM228.184 51H229.184V29.692H228.184H227.184V51H228.184ZM228.184 29.692L227.405 30.3195L242.861 49.4995L243.64 48.872L244.419 48.2445L228.963 29.0645L228.184 29.692ZM243.64 48.872H244.64V30H243.64H242.64V48.872H243.64ZM243.64 30V31H244.452V30V29H243.64V30ZM244.452 30H243.452V51.308H244.452H245.452V30H244.452ZM244.452 51.308L245.231 50.6811L229.775 31.4731L228.996 32.1L228.217 32.7269L243.673 51.9349L244.452 51.308ZM278.843 49.208L278.218 48.4271L277.34 49.1297L278.141 49.9197L278.843 49.208ZM280.999 51.336V52.336H283.436L281.702 50.6243L280.999 51.336ZM279.767 51.336L279.06 52.0431L279.353 52.336H279.767V51.336ZM278.143 49.712L278.85 49.0049L278.265 48.4196L277.581 48.8852L278.143 49.712ZM266.663 50.02L266.142 50.8733L266.663 50.02ZM262.659 45.932L261.788 46.4241L261.795 46.4353L262.659 45.932ZM262.687 34.984L263.549 35.4914L263.551 35.4873L262.687 34.984ZM266.691 30.952L267.199 31.8137L267.206 31.8095L266.691 30.952ZM277.611 30.924L277.099 31.7832V31.7832L277.611 30.924ZM281.559 34.956L280.691 35.4522L280.697 35.4634L281.559 34.956ZM277.527 49.096L278.08 49.9295L279.105 49.2498L278.23 48.3849L277.527 49.096ZM272.571 44.196V43.196H270.137L271.868 44.9071L272.571 44.196ZM273.775 44.196L274.478 43.4844L274.186 43.196H273.775V44.196ZM278.227 48.592L277.524 49.3036L278.162 49.9332L278.858 49.3681L278.227 48.592ZM281.055 45.008L280.161 44.5608L280.156 44.5703L281.055 45.008ZM280.775 35.376L279.907 35.8721V35.8721L280.775 35.376ZM277.135 31.652L276.614 32.5058L276.622 32.5104L277.135 31.652ZM267.139 31.652L267.652 32.5104L267.66 32.5058L267.139 31.652ZM263.471 35.376L262.607 34.8721L262.603 34.8799L263.471 35.376ZM263.471 45.624L262.6 46.1158L262.607 46.1279L263.471 45.624ZM267.139 49.376L266.618 50.2298L266.626 50.2344L267.139 49.376ZM283.043 40.416H282.043C282.043 42.0235 281.702 43.5157 281.024 44.9056L281.923 45.344L282.822 45.7824C283.637 44.111 284.043 42.3179 284.043 40.416H283.043ZM281.923 45.344L281.024 44.9056C280.341 46.3057 279.407 47.4759 278.218 48.4271L278.843 49.208L279.468 49.9889C280.892 48.8494 282.011 47.4437 282.822 45.7824L281.923 45.344ZM278.843 49.208L278.141 49.9197L280.297 52.0477L280.999 51.336L281.702 50.6243L279.546 48.4963L278.843 49.208ZM280.999 51.336V50.336H279.767V51.336V52.336H280.999V51.336ZM279.767 51.336L280.474 50.6289L278.85 49.0049L278.143 49.712L277.436 50.4191L279.06 52.0431L279.767 51.336ZM278.143 49.712L277.581 48.8852C275.937 50.0037 274.126 50.56 272.123 50.56V51.56V52.56C274.525 52.56 276.728 51.8843 278.706 50.5388L278.143 49.712ZM272.123 51.56V50.56C270.348 50.56 268.708 50.0979 267.185 49.1667L266.663 50.02L266.142 50.8733C267.978 51.9954 269.978 52.56 272.123 52.56V51.56ZM266.663 50.02L267.185 49.1667C265.646 48.2264 264.429 46.9839 263.523 45.4287L262.659 45.932L261.795 46.4353C262.868 48.2775 264.32 49.7603 266.142 50.8733L266.663 50.02ZM262.659 45.932L263.53 45.4399C262.643 43.8717 262.203 42.2024 262.203 40.416H261.203H260.203C260.203 42.5496 260.734 44.5576 261.789 46.4241L262.659 45.932ZM261.203 40.416H262.203C262.203 38.6539 262.65 37.0184 263.549 35.4914L262.687 34.984L261.825 34.4766C260.746 36.3096 260.203 38.2954 260.203 40.416H261.203ZM262.687 34.984L263.551 35.4873C264.455 33.9354 265.667 32.7153 267.199 31.8137L266.691 30.952L266.184 30.0903C264.355 31.1673 262.898 32.6353 261.823 34.4807L262.687 34.984ZM266.691 30.952L267.206 31.8095C268.73 30.8948 270.372 30.44 272.151 30.44V29.44V28.44C270.01 28.44 268.012 28.9932 266.177 30.0945L266.691 30.952ZM272.151 29.44V30.44C273.954 30.44 275.597 30.8882 277.099 31.7832L277.611 30.924L278.123 30.0648C276.303 28.9811 274.305 28.44 272.151 28.44V29.44ZM277.611 30.924L277.099 31.7832C278.611 32.6832 279.805 33.9014 280.691 35.4521L281.559 34.956L282.427 34.4599C281.372 32.6133 279.934 31.1435 278.123 30.0648L277.611 30.924ZM281.559 34.956L280.697 35.4634C281.596 36.9888 282.043 38.6335 282.043 40.416H283.043H284.043C284.043 38.2785 283.501 36.2832 282.421 34.4486L281.559 34.956ZM272.123 50.748V51.748C274.266 51.748 276.259 51.1363 278.08 49.9295L277.527 49.096L276.975 48.2625C275.472 49.2583 273.862 49.748 272.123 49.748V50.748ZM277.527 49.096L278.23 48.3849L273.274 43.4849L272.571 44.196L271.868 44.9071L276.824 49.8071L277.527 49.096ZM272.571 44.196V45.196H273.775V44.196V43.196H272.571V44.196ZM273.775 44.196L273.072 44.9076L277.524 49.3036L278.227 48.592L278.93 47.8804L274.478 43.4844L273.775 44.196ZM278.227 48.592L278.858 49.3681C280.168 48.3032 281.201 46.992 281.954 45.4457L281.055 45.008L280.156 44.5703C279.527 45.8613 278.675 46.9394 277.596 47.8159L278.227 48.592ZM281.055 45.008L281.95 45.4552C282.729 43.896 283.119 42.2306 283.119 40.472H282.119H281.119C281.119 41.924 280.8 43.2827 280.161 44.5608L281.055 45.008ZM282.119 40.472H283.119C283.119 38.471 282.627 36.601 281.643 34.8799L280.775 35.376L279.907 35.8721C280.715 37.287 281.119 38.8143 281.119 40.472H282.119ZM280.775 35.376L281.643 34.8799C280.663 33.1646 279.328 31.7976 277.648 30.7936L277.135 31.652L276.622 32.5104C278.003 33.3357 279.095 34.4514 279.907 35.8721L280.775 35.376ZM277.135 31.652L277.656 30.7982C275.968 29.7693 274.127 29.252 272.151 29.252V30.252V31.252C273.759 31.252 275.241 31.668 276.614 32.5058L277.135 31.652ZM272.151 30.252V29.252C270.159 29.252 268.308 29.7682 266.618 30.7982L267.139 31.652L267.66 32.5058C269.032 31.6691 270.522 31.252 272.151 31.252V30.252ZM267.139 31.652L266.626 30.7936C264.948 31.7965 263.605 33.161 262.607 34.8721L263.471 35.376L264.335 35.8799C265.166 34.455 266.269 33.3368 267.652 32.5104L267.139 31.652ZM263.471 35.376L262.603 34.8799C261.619 36.601 261.127 38.471 261.127 40.472H262.127H263.127C263.127 38.8143 263.531 37.287 264.339 35.8721L263.471 35.376ZM262.127 40.472H261.127C261.127 42.4897 261.618 44.3768 262.6 46.1157L263.471 45.624L264.342 45.1323C263.532 43.6979 263.127 42.1503 263.127 40.472H262.127ZM263.471 45.624L262.607 46.1279C263.604 47.8373 264.944 49.209 266.618 50.2298L267.139 49.376L267.66 48.5222C266.273 47.6764 265.167 46.5467 264.335 45.1201L263.471 45.624ZM267.139 49.376L266.626 50.2344C268.313 51.2422 270.151 51.748 272.123 51.748V50.748V49.748C270.511 49.748 269.027 49.3391 267.652 48.5176L267.139 49.376ZM302.728 50.804L302.246 51.6806L302.253 51.6842L302.26 51.6878L302.728 50.804ZM300.488 48.592L299.618 49.0863V49.0863L300.488 48.592ZM299.676 30V29H298.676V30H299.676ZM300.6 30H301.6V29H300.6V30ZM301.3 48.172L300.426 48.6577L300.43 48.666L301.3 48.172ZM303.204 50.076L302.716 50.9492L302.725 50.9539L303.204 50.076ZM308.664 50.104L309.135 50.9858L309.143 50.9819L308.664 50.104ZM310.568 48.2L309.694 47.7143L309.69 47.7211L310.568 48.2ZM311.268 30V29H310.268V30H311.268ZM312.192 30H313.192V29H312.192V30ZM311.408 48.592L312.284 49.0733L312.288 49.0661L311.408 48.592ZM309.196 50.804L309.671 51.6839L309.677 51.6806L309.196 50.804ZM305.976 51.56V50.56C304.905 50.56 303.986 50.3387 303.196 49.9202L302.728 50.804L302.26 51.6878C303.373 52.2773 304.62 52.56 305.976 52.56V51.56ZM302.728 50.804L303.209 49.9274C302.421 49.4946 301.808 48.8902 301.357 48.0977L300.488 48.592L299.618 49.0863C300.25 50.1978 301.131 51.0681 302.246 51.6806L302.728 50.804ZM300.488 48.592L301.357 48.0977C300.914 47.3188 300.676 46.3839 300.676 45.26H299.676H298.676C298.676 46.6748 298.979 47.9612 299.618 49.0863L300.488 48.592ZM299.676 45.26H300.676V30H299.676H298.676V45.26H299.676ZM299.676 30V31H300.6V30V29H299.676V30ZM300.6 30H299.6V45.232H300.6H301.6V30H300.6ZM300.6 45.232H299.6C299.6 46.4936 299.864 47.6462 300.426 48.6576L301.3 48.172L302.174 47.6864C301.803 47.0178 301.6 46.2104 301.6 45.232H300.6ZM301.3 48.172L300.43 48.666C300.985 49.6417 301.75 50.4095 302.716 50.9492L303.204 50.076L303.691 49.2028C303.053 48.8465 302.548 48.345 302.169 47.678L301.3 48.172ZM303.204 50.076L302.725 50.9539C303.704 51.4882 304.786 51.748 305.948 51.748V50.748V49.748C305.094 49.748 304.346 49.5598 303.683 49.1981L303.204 50.076ZM305.948 50.748V51.748C307.102 51.748 308.173 51.5008 309.135 50.9858L308.664 50.104L308.192 49.2222C307.55 49.5659 306.809 49.748 305.948 49.748V50.748ZM308.664 50.104L309.143 50.9819C310.132 50.4419 310.906 49.6688 311.446 48.6789L310.568 48.2L309.69 47.7211C309.334 48.3739 308.838 48.87 308.185 49.2261L308.664 50.104ZM310.568 48.2L311.442 48.6856C312.005 47.6718 312.268 46.5091 312.268 45.232H311.268H310.268C310.268 46.2322 310.064 47.0482 309.694 47.7144L310.568 48.2ZM311.268 45.232H312.268V30H311.268H310.268V45.232H311.268ZM311.268 30V31H312.192V30V29H311.268V30ZM312.192 30H311.192V45.204H312.192H313.192V30H312.192ZM312.192 45.204H311.192C311.192 46.3545 310.959 47.3157 310.527 48.1179L311.408 48.592L312.288 49.0661C312.902 47.927 313.192 46.6295 313.192 45.204H312.192ZM311.408 48.592L310.531 48.1107C310.1 48.8961 309.5 49.4963 308.714 49.9274L309.196 50.804L309.677 51.6806C310.796 51.0664 311.67 50.1919 312.284 49.0733L311.408 48.592ZM309.196 50.804L308.721 49.9241C307.953 50.3386 307.047 50.56 305.976 50.56V51.56V52.56C307.331 52.56 308.572 52.2774 309.671 51.6839L309.196 50.804ZM329.789 30V29H328.789V30H329.789ZM337.321 30H338.321V29H337.321V30ZM337.321 30.812V31.812H338.321V30.812H337.321ZM330.713 30.812V29.812H329.713V30.812H330.713ZM330.713 42.236H329.713V43.236H330.713V42.236ZM336.229 42.236H337.229V41.236H336.229V42.236ZM336.229 43.048V44.048H337.229V43.048H336.229ZM330.713 43.048V42.048H329.713V43.048H330.713ZM330.713 50.188H329.713V51.188H330.713V50.188ZM337.321 50.188H338.321V49.188H337.321V50.188ZM337.321 51V52H338.321V51H337.321ZM329.789 51H328.789V52H329.789V51ZM329.789 30V31H337.321V30V29H329.789V30ZM337.321 30H336.321V30.812H337.321H338.321V30H337.321ZM337.321 30.812V29.812H330.713V30.812V31.812H337.321V30.812ZM330.713 30.812H329.713V42.236H330.713H331.713V30.812H330.713ZM330.713 42.236V43.236H336.229V42.236V41.236H330.713V42.236ZM336.229 42.236H335.229V43.048H336.229H337.229V42.236H336.229ZM336.229 43.048V42.048H330.713V43.048V44.048H336.229V43.048ZM330.713 43.048H329.713V50.188H330.713H331.713V43.048H330.713ZM330.713 50.188V51.188H337.321V50.188V49.188H330.713V50.188ZM337.321 50.188H336.321V51H337.321H338.321V50.188H337.321ZM337.321 51V50H329.789V51V52H337.321V51ZM329.789 51H330.789V30H329.789H328.789V51H329.789Z" fill="#C98512" mask="url(#path-7-outside-1_146_665)"/>
<path d="M208.727 79.3172C208.727 79.563 209.191 80.0819 209.764 80.4097C210.309 80.7647 210.827 81.1197 210.909 81.2017C210.991 81.3109 211.264 81.5021 211.509 81.6387C211.755 81.7752 212.9 82.7311 214.073 83.7962C215.927 85.4895 216.582 86.1176 218.273 88.0021C218.518 88.2479 219.064 88.958 219.5 89.5315C219.964 90.1324 220.482 90.7878 220.645 90.979C221.164 91.4979 224.055 95.9223 224.436 96.7689C224.545 96.9874 224.709 97.2332 224.791 97.3151C224.955 97.4517 226.864 101.303 227.655 103.105C227.9 103.651 228.091 104.279 228.091 104.525C228.091 104.771 228.227 104.962 228.364 104.962C228.527 104.962 228.636 105.153 228.636 105.399C228.636 105.809 229.182 107.666 229.727 109.195C230.409 111.053 231.036 114.111 231.882 119.929C232.536 124.298 232.1 133.229 231.064 137.326C230.109 140.958 229.864 141.887 229.264 143.744C228.909 144.863 228.309 146.447 227.927 147.239C227.573 148.032 227.273 148.769 227.273 148.905C227.273 149.206 224.627 154.395 224.191 154.941C224 155.16 223.618 155.788 223.318 156.307C223.045 156.826 222.664 157.399 222.527 157.59C222.118 158.055 221.845 158.41 220.482 160.267C218.136 163.408 215 166.603 211.727 169.143C211.045 169.662 210.255 170.317 209.955 170.59C209.655 170.863 208.973 171.355 208.455 171.683C207.936 171.983 207.445 172.311 207.364 172.393C207.173 172.611 206.245 173.212 205.727 173.431C205.509 173.54 205.264 173.676 205.182 173.758C205.1 173.84 204.009 174.441 202.727 175.069C195.718 178.483 193.073 179.33 185.818 180.34C183.609 180.641 175.836 180.641 173.818 180.34C173 180.204 171.527 179.985 170.545 179.849C169.564 179.685 168.418 179.439 167.955 179.303C167.518 179.166 166.591 178.893 165.909 178.702C164.218 178.237 162.418 177.637 161.273 177.145C158.955 176.134 154.727 174.004 153.8 173.376C153.255 172.994 152.736 172.693 152.682 172.693C152.464 172.693 149.955 170.918 149.873 170.7C149.818 170.59 149.6 170.508 149.409 170.508C149.218 170.508 149 170.426 148.945 170.29C148.891 170.181 148.264 169.607 147.527 169.006C145.755 167.613 141.364 163.216 141.364 162.889C141.364 162.752 141.282 162.588 141.173 162.534C140.818 162.397 138.282 159.366 137.627 158.328C135.255 154.641 134.273 152.975 134.273 152.756C134.273 152.592 134 152.019 133.673 151.445C132.527 149.561 130.727 145.519 130.727 144.836C130.727 144.563 130.618 144.263 130.482 144.181C130.345 144.099 130.182 143.744 130.1 143.416C130.045 143.061 129.691 141.805 129.364 140.603C126.609 130.826 126.745 117.826 129.691 109.332C129.773 109.113 129.991 108.485 130.155 107.966C130.345 107.447 130.591 106.628 130.7 106.191C131.327 103.788 136.973 92.8088 138.091 91.8529C138.173 91.771 138.827 90.979 139.509 90.0504C141.282 87.7563 145.809 83.1681 147.718 81.7752C148.564 81.1471 149.273 80.4916 149.273 80.3277C149.273 79.9727 147.773 80.2458 147.2 80.7101C146.982 80.9013 146.655 81.2017 146.464 81.3382C146.273 81.5021 145.291 82.1576 144.227 82.8403C143.191 83.5231 142.182 84.1786 142.018 84.3424C141.855 84.479 141.091 85.1345 140.327 85.7899C138.036 87.729 132.091 93.8193 132.091 94.2017C132.091 94.2836 131.845 94.6113 131.518 94.9391C129.827 96.7416 124.427 106.3 123.664 108.922C123.391 109.769 122.9 111.271 122.518 112.2C121.809 114.057 121.536 115.013 120.773 118.481C119.082 126.101 119.082 135.523 120.773 142.651C121.018 143.634 121.291 144.863 121.427 145.382C121.7 146.475 122.982 150.435 123.336 151.254C123.473 151.555 123.773 152.347 124.045 153.029C124.536 154.313 126.664 158.792 126.909 159.038C127.045 159.174 127.591 160.13 128.355 161.578C128.927 162.616 130.318 164.637 130.536 164.718C130.645 164.773 130.727 164.992 130.727 165.183C130.727 165.374 130.809 165.592 130.945 165.647C131.136 165.729 131.927 166.685 133.318 168.487C135.009 170.7 140.327 175.807 143.136 177.882C144.036 178.565 144.827 179.166 144.909 179.275C145.264 179.658 150.718 182.962 151.727 183.372C152.109 183.536 153.255 184.082 154.291 184.601C155.327 185.12 156.336 185.529 156.527 185.529C156.745 185.529 156.909 185.639 156.909 185.775C156.909 185.912 157.182 186.076 157.536 186.158C158.109 186.294 159.336 186.704 160.591 187.195C160.891 187.305 161.873 187.605 162.773 187.851C163.673 188.097 164.845 188.424 165.364 188.588C166.345 188.916 166.945 189.025 172.182 189.817C178.564 190.8 187.564 190.309 193.945 188.643C196.318 188.015 198.473 187.359 198.909 187.141C199.127 187.032 200.027 186.731 200.9 186.458C201.745 186.185 202.455 185.857 202.455 185.748C202.455 185.639 202.618 185.529 202.836 185.529C203.055 185.529 204.036 185.147 204.991 184.71C205.973 184.273 206.9 183.891 207.064 183.891C207.227 183.891 207.364 183.754 207.364 183.618C207.364 183.454 207.5 183.345 207.636 183.345C208.127 183.345 214.809 179.275 215.273 178.702C215.355 178.62 215.982 178.128 216.718 177.609C217.427 177.118 218 176.599 218 176.462C218 176.353 218.136 176.244 218.3 176.244C219.036 176.244 225.309 169.853 227.573 166.821C228.227 165.92 228.991 164.91 229.291 164.582C230.164 163.571 232.7 159.284 233.791 156.989C235.155 154.149 235.427 153.494 236.818 149.889C237.555 147.977 237.909 146.775 237.909 146.147C237.909 145.737 238.018 145.355 238.155 145.273C238.264 145.191 238.455 144.481 238.564 143.689C238.673 142.897 238.864 141.859 239 141.422C239.927 138.282 240.391 128.668 239.791 124.763C239.627 123.697 239.382 122.168 239.273 121.349C239.055 119.983 238.536 117.498 237.936 115.067C237.5 113.401 236.355 110.069 235.618 108.376C235.209 107.475 234.745 106.437 234.582 106.055C234.418 105.672 234.118 105.044 233.927 104.634C233.709 104.225 233.191 103.242 232.782 102.45C232.373 101.658 231.964 100.947 231.882 100.866C231.8 100.784 231.5 100.292 231.2 99.7731C230.518 98.5441 227.791 94.7479 227.491 94.6387C227.382 94.584 227.273 94.3655 227.273 94.1744C227.273 93.9832 227.191 93.7647 227.055 93.7101C226.945 93.6555 226.427 93.0819 225.909 92.3992C224.409 90.4328 220.264 86.4181 218.027 84.7521C217.509 84.3697 216.718 83.7416 216.255 83.3319C215.791 82.9223 215.191 82.5126 214.945 82.4034C214.673 82.3214 214.455 82.1302 214.455 81.9937C214.455 81.8571 214.264 81.7479 214.045 81.7479C213.827 81.7479 213.636 81.6113 213.636 81.4748C213.636 81.3109 213.473 81.2017 213.282 81.2017C213.064 81.2017 212.545 80.9013 212.109 80.5189C211.673 80.1366 211.045 79.7542 210.718 79.6723C210.364 79.563 210.091 79.3992 210.091 79.2899C210.091 79.1807 209.791 79.0168 209.409 78.9622C208.891 78.8529 208.727 78.9349 208.727 79.3172Z" fill="#C17E15"/>
<path d="M132.8 128.586C132.609 129.105 133.073 133.038 133.427 133.994C133.591 134.431 133.727 135.141 133.727 135.578C133.727 136.015 133.864 136.37 134 136.37C134.164 136.37 134.273 136.779 134.273 137.244C134.273 138.527 136.918 146.502 137.545 147.13C137.709 147.294 137.818 147.622 137.818 147.868C137.818 148.141 137.9 148.387 138.036 148.441C138.145 148.468 138.473 149.015 138.773 149.616C139.564 151.227 140.9 153.439 141.145 153.521C141.255 153.576 141.364 153.739 141.364 153.876C141.364 154.149 143.055 156.689 143.355 156.798C143.464 156.853 143.545 157.071 143.545 157.263C143.545 157.454 143.627 157.672 143.764 157.727C143.873 157.754 144.391 158.355 144.909 159.038C146.327 160.84 151.155 165.592 151.591 165.592C151.673 165.592 152.027 165.866 152.355 166.221C152.682 166.548 153.2 166.958 153.5 167.149C153.8 167.34 155.218 168.214 156.636 169.116C159.227 170.727 163.182 172.693 163.864 172.693C164.055 172.693 164.573 172.884 164.982 173.103C165.418 173.321 165.964 173.513 166.182 173.513C166.427 173.513 166.727 173.622 166.864 173.731C167.027 173.868 168.118 174.168 169.318 174.441C170.518 174.687 172.127 175.042 172.864 175.233C174.636 175.643 184.727 175.643 186.364 175.233C187.045 175.069 188.573 174.714 189.773 174.468C190.973 174.195 192.2 173.895 192.5 173.758C192.8 173.649 193.836 173.294 194.791 172.966C196.727 172.338 200.164 170.7 202.318 169.416C203.082 168.952 203.9 168.515 204.173 168.433C204.418 168.324 204.636 168.16 204.636 168.05C204.636 167.914 204.855 167.75 205.127 167.668C205.4 167.559 205.864 167.286 206.164 167.013C206.436 166.739 207.445 165.947 208.4 165.237C210.364 163.708 213.882 160.267 215.273 158.492C215.791 157.809 216.309 157.208 216.418 157.181C216.555 157.126 216.636 156.908 216.636 156.716C216.636 156.525 216.745 156.307 216.855 156.252C217.127 156.143 220.182 151.2 220.182 150.872C220.182 150.735 220.291 150.571 220.427 150.517C220.645 150.435 222.909 145.901 222.909 145.519C222.909 145.41 223.073 144.945 223.264 144.481C223.482 143.989 223.864 142.924 224.109 142.105C224.382 141.286 224.682 140.357 224.818 140.057C224.927 139.756 225.227 138.527 225.473 137.326C225.691 136.124 225.964 134.758 226.045 134.321C226.373 132.737 226.727 128.859 226.591 128.477C226.345 127.849 226.018 128.422 225.227 130.771C224.327 133.502 222.855 137.025 222.582 137.134C222.473 137.189 222.364 137.408 222.364 137.626C222.364 137.981 221.818 138.992 220.782 140.603C220.618 140.903 220.373 141.34 220.264 141.559C220.155 141.777 219.964 142.078 219.855 142.242C219.718 142.378 218.764 143.744 217.7 145.246C215.764 147.95 212.3 151.609 209.709 153.712C208.973 154.313 207.991 155.132 207.527 155.542C207.064 155.952 206.545 156.307 206.355 156.307C206.191 156.307 206 156.416 205.945 156.525C205.864 156.716 201.964 159.174 200.382 160.048C200.082 160.212 198.855 160.731 197.655 161.223C196.482 161.687 195.255 162.179 194.955 162.315C193.1 163.053 191.709 163.435 186.5 164.555C184.318 165.019 175.318 165.019 173.136 164.555C172.236 164.363 170.955 164.063 170.273 163.899C169.591 163.735 168.691 163.544 168.227 163.489C167.791 163.408 167.027 163.189 166.536 162.971C166.073 162.752 165.555 162.588 165.391 162.588C165.227 162.588 164.873 162.479 164.6 162.342C164.355 162.206 163.591 161.878 162.909 161.632C159.991 160.485 154.182 157.235 152.245 155.651C151.864 155.324 151.127 154.777 150.609 154.395C148.755 153.029 142.591 146.666 141.936 145.437C141.773 145.137 141.473 144.727 141.309 144.508C140.682 143.853 138.718 140.767 138.036 139.374C137.845 138.992 137.627 138.637 137.518 138.555C137.245 138.336 135.909 135.332 135.227 133.42C134.873 132.464 134.545 131.618 134.436 131.536C134.355 131.426 134.273 131.181 134.273 130.935C134.273 129.351 133.182 127.63 132.8 128.586Z" fill="#011941"/>
</svg>
